<?xml version="1.0" encoding="UTF-8"?>
<svg width="140px" height="137px" viewBox="0 0 140 137" version="1.1" xmlns="http://www.w3.org/2000/svg" xmlns:xlink="http://www.w3.org/1999/xlink">
    <!-- Generator: Sketch 42 (36781) - http://www.bohemiancoding.com/sketch -->
    <title>personalBot</title>
    <desc>Created with Sketch.</desc>
    <defs>
        <polygon id="path-1" points="0.42324891 136.573209 96.7338221 136.573209 96.7338221 0.274426791 0.42324891 0.274426791 0.42324891 136.573209"></polygon>
    </defs>
    <g id="•-Landing-Page" stroke="none" stroke-width="1" fill="none" fill-rule="evenodd">
        <g id="EezyLanding" transform="translate(-344.000000, -884.000000)">
            <g id="personalBot" transform="translate(344.646417, 884.000000)">
                <path d="M97.2359847,102.409933 L97.2359847,102.409933 C96.7289567,104.023631 95.9543305,105.405581 95.1152589,106.387627 C94.6970034,106.878864 94.2642371,107.269378 93.857505,107.545939 C93.4503461,107.82378 93.0730626,107.985107 92.7636389,108.053394 C92.4490938,108.120827 92.211371,108.107169 91.9855984,108.037602 L91.9847449,108.037176 C91.8421966,107.991936 91.712452,107.925356 91.5792931,107.825487 C91.3808352,107.676537 91.1721343,107.443509 90.9813586,107.102076 C90.7905829,106.762777 90.6220003,106.319341 90.5054863,105.793961 C90.3497075,105.09445 90.2869692,104.252391 90.3480003,103.334789 C90.4081779,102.417188 90.5904178,101.424045 90.9083773,100.415537 C91.4154053,98.8018393 92.1900315,97.4194623 93.0291031,96.4378424 C93.4473586,95.9461788 93.8801249,95.5560916 94.286857,95.279104 C94.6935891,95.0012629 95.0708726,94.8399358 95.3807231,94.772076 C95.6948414,94.7042162 95.9321374,94.7178735 96.1600439,94.7878673 C96.3025922,94.8331072 96.43191,94.8996866 96.5650688,94.9995558 C96.7635268,95.1485059 96.9718009,95.3811072 97.1625766,95.7221134 C97.3533523,96.0609857 97.5219349,96.503995 97.6380221,97.0289483 C97.7938009,97.728886 97.8565393,98.571372 97.7959349,99.4894 C97.7361841,100.407428 97.5539442,101.400998 97.2359847,102.409933" id="Fill-1" fill="#00C0C8"></path>
                <path d="M24.573404,98.8734548 C25.1021984,99.7889221 25.4948464,100.7189 25.7526283,101.601931 C26.0108371,102.484536 26.131619,103.32062 26.1311922,104.037202 C26.1324726,104.755492 26.0082763,105.348305 25.8251829,105.758452 C25.7342763,105.964592 25.6314196,106.126773 25.5234414,106.253103 C25.4150364,106.379433 25.3027903,106.472047 25.1734726,106.547162 C24.9664788,106.664956 24.7372919,106.729402 24.4163449,106.731536 C24.0992389,106.732389 23.6959212,106.656421 23.2384009,106.473327 C22.5525474,106.201034 21.7565816,105.688031 20.9853698,104.958218 C20.2124508,104.229685 19.4617249,103.289891 18.8279399,102.190903 L18.8275131,102.190477 C18.2987187,101.275009 17.9056439,100.345031 17.647862,99.462 C17.3900801,98.5793956 17.2688713,97.7437383 17.2692981,97.0271558 C17.2684445,96.308866 17.3926408,95.716053 17.5753075,95.3059065 C17.666214,95.0997664 17.7694975,94.9375857 17.8774757,94.8112555 C17.9863075,94.6849252 18.0981268,94.5923115 18.2274445,94.5167695 L18.2282981,94.5163427 C18.4335847,94.3994019 18.6627717,94.3345296 18.9845723,94.3323956 C19.3012514,94.3319688 19.704996,94.4075109 20.1620894,94.5910312 C20.5829056,94.7579065 21.0451206,95.0161153 21.5171517,95.3584019 C21.913214,95.7151994 22.316105,96.0664486 22.7253978,96.411296 C23.3882047,97.0903209 24.0245505,97.9221371 24.573404,98.8734548" id="Fill-3" fill="#00C0C8"></path>
                <path d="M14.176043,116.416113 C12.4778405,117.453642 10.7497626,118.338381 8.98711464,119.002468 C7.22403988,119.666555 5.42810218,120.110845 3.57796199,120.276013 C3.3479215,120.296499 3.11318629,120.307596 2.88101184,120.307596 C2.18918318,120.310156 1.52125483,120.200044 1.05690592,119.999026 C0.822597508,119.899583 0.639077259,119.783069 0.496955763,119.655032 C0.354407477,119.525714 0.247709657,119.387434 0.156803115,119.194951 L0.155949533,119.19367 C0.0496785047,118.963203 0.00145109034,118.735297 0.000170716511,118.4502 C-0.00281682243,118.013166 0.141011838,117.439985 0.420986916,116.821991 C0.697547664,116.203998 1.0970243,115.552714 1.51442617,114.947097 C5.39822679,109.299795 9.61492461,103.923505 14.1214137,98.8493838 C14.2063452,99.3572654 14.3198717,99.8711221 14.4709558,100.389247 C14.8064137,101.539022 15.3036255,102.70587 15.9613109,103.845402 L15.9613109,103.845829 C17.0159121,105.668655 18.3308561,107.171387 19.7657283,108.25629 C20.4840181,108.798315 21.2338903,109.236203 22.0106505,109.546907 C22.3294636,109.674091 22.6542517,109.773533 22.9820274,109.854197 C20.1246598,112.235692 17.2015664,114.56896 14.176043,116.416113" id="Fill-5" fill="#00C0C8"></path>
                <path d="M71.9372062,58.8327935 C68.504524,58.8327935 68.3385022,63.544996 68.3385022,63.544996 L75.5918199,63.544996 C75.5918199,58.5976315 71.9372062,58.8327935 71.9372062,58.8327935" id="Fill-7" fill="#00C0C8"></path>
                <path d="M43.9433688,58.8327935 C40.5102598,58.8327935 40.344238,63.544996 40.344238,63.544996 L47.5979826,63.544996 C47.5979826,58.5976315 43.9433688,58.8327935 43.9433688,58.8327935" id="Fill-9" fill="#00C0C8"></path>
                <g id="Group-13" transform="translate(9.389408, 0.152364)">
                    <mask id="mask-2" fill="white">
                        <use xlink:href="#path-1"></use>
                    </mask>
                    <g id="Clip-12"></g>
                    <path d="M81.5195667,75.1646019 C80.73171,77.389038 79.5413891,79.4517202 77.9174483,81.2152218 C76.2192458,83.0581065 74.3639841,84.5040754 72.3695885,85.6508636 C69.379062,87.3691252 66.0646009,88.4130567 62.5277816,89.0250754 C58.9926695,89.6379477 55.2437349,89.8146393 51.4324888,89.8142125 C51.1098346,89.8142125 50.7850464,89.806957 50.4615386,89.8043963 L50.4615386,81.5903713 C51.9198844,81.462334 53.3274421,81.194309 54.6825044,80.7794679 C56.6440371,80.1785458 58.3733953,79.3706299 59.8675916,78.3548667 C61.3622146,77.3386766 62.5935075,76.1615863 63.5589093,74.8223153 C64.524738,73.4826174 65.1000526,72.0511595 65.2865604,70.5279414 L50.4615386,70.5279414 L50.4615386,52.0269664 C52.2224794,50.6949508 54.1511492,49.6779072 56.1813953,48.9672997 C58.6141056,48.1162779 61.1893642,47.7014368 63.7676103,47.7014368 C64.5345542,47.7014368 65.3014981,47.7381408 66.0646009,47.8111221 C68.6812583,48.060795 70.9765417,48.8192031 72.9794732,49.9574555 C75.9802427,51.6641938 78.3348502,54.2428667 79.9809841,57.2978386 C81.6258377,60.3493963 82.5477069,63.8704243 82.6740371,67.3709664 L82.6740371,67.3679788 C82.6829997,67.6406984 82.6881212,67.9117109 82.6881212,68.181443 C82.688548,70.5569632 82.3069966,72.9410193 81.5195667,75.1646019 L81.5195667,75.1646019 Z M47.1517723,70.5279414 L32.025009,70.5279414 C32.2742551,72.005066 32.8508502,73.413904 33.7530869,74.7531751 C34.6574576,76.0924461 35.8405231,77.2819134 37.3035636,78.3211502 C38.7678844,79.3599601 40.4340776,80.1785458 42.3025698,80.7794679 C43.7984732,81.2604617 45.4164389,81.5451315 47.1517723,81.6411595 L47.1517723,89.7997016 C46.6763268,89.8048231 46.1987474,89.8142125 45.7245822,89.8142125 C40.6423517,89.8159196 35.6723673,89.4979601 31.1701461,88.2602654 C28.9179685,87.6418449 26.7818782,86.7967981 24.7874826,85.6508636 C22.7930869,84.5040754 20.938252,83.0581065 19.2400495,81.2152218 C17.6161087,79.4517202 16.4257879,77.389038 15.6375044,75.1646019 C14.8500745,72.9410193 14.4685231,70.5565364 14.4685231,68.181443 C14.4685231,67.9108573 14.4736445,67.6411252 14.4834607,67.3726735 L14.4834607,67.3709664 C14.5679654,65.0376984 15.0049997,62.6941875 15.7753579,60.4876766 C16.9306819,57.1757763 18.8337442,54.1814087 21.3949187,51.9403277 C22.6761461,50.8182935 24.1225417,49.8819134 25.735386,49.1768542 C27.348657,48.4722218 29.1300838,47.9980567 31.0933237,47.8111221 C31.8559997,47.7381408 32.6229436,47.7014368 33.389034,47.7014368 C35.9672801,47.7014368 38.5425386,48.1162779 40.9752489,48.9672997 C43.1826134,49.7393651 45.2700495,50.8729227 47.1517723,52.3812031 L47.1517723,70.5279414 Z M35.0829685,6.87714393 C35.3194109,6.2275676 35.6638315,5.6599352 36.0927567,5.21777944 L36.0927567,5.21820623 C36.4747349,4.82299751 36.8878688,4.47900374 37.290333,4.23829346 C37.6945044,3.9963028 38.0764826,3.85887601 38.4366944,3.81790405 L38.4371212,3.81790405 C38.572414,3.80211277 38.6914888,3.7957109 38.7926383,3.7957109 C39.044872,3.7957109 39.1857131,3.83454891 39.2488782,3.8593028 C39.2971056,3.8789352 39.3056414,3.8887514 39.3107629,3.89259252 C39.3150308,3.89814081 39.3257006,3.90027477 39.3547224,3.97410966 C39.3816103,4.04495701 39.4123393,4.18622492 39.4114857,4.38169533 C39.4123393,4.62667352 39.363685,4.95103489 39.2608283,5.28649283 C39.1588252,5.62237757 39.0047536,5.96978567 38.8237941,6.2715271 L38.8237941,6.2715271 C38.3244483,7.11230592 37.5340308,7.88778567 36.5639343,8.61119688 C36.0120931,9.02475763 35.4060495,9.41697882 34.7833611,9.80237134 C34.7470838,9.52965171 34.7223299,9.25351776 34.7223299,8.97396947 C34.7223299,8.25183863 34.8465262,7.52543988 35.0829685,6.87714393 L35.0829685,6.87714393 Z M92.9891555,47.4645676 C90.5747972,42.5590287 87.070414,38.1225333 82.7209841,34.3851221 C74.084009,26.9623682 62.1163548,22.3167452 48.859791,22.2531533 C48.4539125,20.2796704 48.0369374,18.2835676 47.5328969,16.2823433 L47.5328969,16.2814897 C47.5171056,16.2200318 47.4846695,16.0749227 47.4462583,15.8960972 C47.3779717,15.5789913 47.2857847,15.1445178 47.1679903,14.6690723 C47.078791,14.3114212 46.9750807,13.9298698 46.8500308,13.544904 C46.7561368,13.2559664 46.6502925,12.9648947 46.5248159,12.675957 C46.332333,12.2427639 46.1125355,11.8125583 45.735252,11.3814991 C45.5440495,11.1676766 45.3059,10.9500131 44.9823922,10.7694804 C44.6627255,10.5898012 44.2427629,10.4596299 43.8074358,10.4621907 C43.5244732,10.4613371 43.2444981,10.5142592 42.9956788,10.6021782 C42.6201025,10.7349103 42.3158003,10.9363558 42.0605791,11.1565801 C41.8040776,11.3780847 41.5906819,11.6230629 41.3909436,11.8932218 L41.3909436,11.892795 C41.128467,12.2491657 40.8928782,12.5406642 40.6811897,12.7655832 C40.3598159,13.105309 40.1118502,13.285415 39.8596165,13.4027826 C39.7311523,13.461253 39.5954327,13.5069196 39.4255698,13.5414897 C39.2561336,13.5752062 39.0521274,13.5969726 38.7977598,13.5969726 C38.5873517,13.5969726 38.3428003,13.5820349 38.0615449,13.547038 C37.4892178,13.4749103 37.0329779,13.303767 36.6377692,13.0596424 C36.5694826,13.01739 36.5080246,12.9636143 36.4427255,12.9162405 C37.1712583,12.46939 37.9292396,11.9866891 38.67271,11.4314336 C39.8540682,10.5466953 41.0068315,9.48057072 41.8476103,8.07642741 L41.8476103,8.07642741 C42.1762396,7.52501308 42.4404234,6.93177321 42.6294919,6.31292586 C42.8172801,5.69322492 42.9320869,5.04791651 42.9329405,4.38169533 C42.9329405,3.91051776 42.8744701,3.42610966 42.7221056,2.94127477 C42.6081523,2.57892897 42.4387162,2.2157296 42.2014202,1.87856449 C41.8488907,1.37196324 41.3333268,0.936636137 40.7362458,0.666477259 C40.1378844,0.39290405 39.4780651,0.273829283 38.7926383,0.274256075 C38.5455262,0.274256075 38.2941461,0.289620561 38.036791,0.319069159 C37.0748034,0.429181308 36.2156726,0.775735826 35.4777505,1.21874517 C34.7381212,1.66388847 34.1081773,2.20634019 33.5635916,2.76757072 L33.5635916,2.76757072 C32.7479935,3.61048349 32.1594483,4.61344299 31.773629,5.67316573 C31.3878097,6.73416885 31.2013019,7.85577632 31.2013019,8.97396947 C31.2013019,9.87919377 31.3242178,10.7835645 31.5764514,11.6533651 C31.577305,11.6563526 31.5785854,11.659767 31.5794389,11.6627545 C28.5359903,13.2589539 25.2501243,14.3954991 21.870791,14.984471 C20.9126445,15.1513464 20.271604,16.0633994 20.4384794,17.0215458 C20.6053548,17.9796922 21.5174078,18.6207327 22.4755542,18.4538573 L22.4755542,18.4538573 C26.2394265,17.7974523 29.8855044,16.5392717 33.2592894,14.7642467 C33.3839125,14.9046611 33.513657,15.0416611 33.650657,15.1735396 C34.1602458,15.6630692 34.7560464,16.0847389 35.4261087,16.4052592 C36.0957442,16.7262062 36.8379343,16.9442966 37.6287785,17.0420318 C38.0320963,17.0919664 38.4200495,17.1184274 38.7977598,17.1184274 C39.4042302,17.1188542 39.9868003,17.0484336 40.5377879,16.8935084 C41.3666165,16.6643215 42.0968564,16.2332623 42.6866819,15.7176984 C43.0067754,15.4398573 43.2910184,15.1402498 43.5594701,14.8257047 C43.6508034,15.1278729 43.7365885,15.4513807 43.809143,15.7616579 C43.8731617,16.0330972 43.9294981,16.2934399 43.9794327,16.5251875 C44.0302209,16.759496 44.0711928,16.9558199 44.1189935,17.1465956 L44.1189935,17.1453153 C44.5517598,18.8520536 44.9205075,20.5929352 45.2828533,22.3517421 C36.5169872,22.8583433 28.4019779,25.3631813 21.5600869,29.3353277 C13.8663206,33.8008449 7.78838598,40.1071128 4.16748879,47.4645676 C1.75313053,52.3713869 0.424102492,57.7442623 0.42324891,63.3924181 C0.424529283,70.2846704 2.40270685,76.7710442 5.92117414,82.4934617 C7.45506199,84.9889103 9.24289065,87.3358355 11.2774047,89.4446112 C13.1924171,91.4287639 15.6016539,93.1483059 17.2179125,95.3710349 C18.6032769,97.2758044 19.6019685,99.0183931 19.8845044,101.410985 C20.1482614,103.640543 19.8273143,105.951617 19.3629654,108.079599 C18.6246165,111.463627 17.8858408,114.847655 17.1474919,118.231256 C16.5730308,120.863705 15.9985698,123.495726 15.4241087,126.128175 C14.9234826,128.421751 14.9239093,130.540343 15.4531305,132.832212 C16.4057287,136.956723 20.392386,136.563222 23.7264794,136.563222 L35.2165542,136.563222 L49.4504701,136.563222 L63.5102551,136.563222 L74.4792178,136.563222 C75.8641555,136.563222 78.1299903,136.562795 79.3181773,135.786888 C80.5157536,135.00458 81.2477006,133.728047 81.662115,132.378533 C82.2724265,130.389259 82.1537785,128.075197 81.7380838,126.152502 C81.140576,123.389455 80.5430682,120.626409 79.9455604,117.863362 C79.3894514,115.292798 78.8337692,112.721807 78.2776601,110.151244 C77.7539872,107.730057 76.9349748,105.206013 77.136847,102.702029 C77.2614701,101.155337 77.6716165,99.6436424 78.3203393,98.2352312 C79.4176196,95.8528822 81.2826975,93.6796611 83.2297193,91.9554243 C85.5395137,89.9098137 87.6418875,87.627334 89.4617255,85.1352997 C90.0929498,84.2719009 90.689604,83.3833215 91.2491274,82.4721221 C94.7590589,76.7543994 96.7325417,70.2761346 96.7338221,63.3924181 C96.7329685,57.7442623 95.4039405,52.3713869 92.9891555,47.4645676 L92.9891555,47.4645676 Z" id="Fill-11" fill="#00C0C8" mask="url(#mask-2)"></path>
                </g>
                <polygon id="Fill-14" fill="#00C0C8" points="47.4261564 0.471348287 47.4261564 0.471348287 47.4266564 0.471348287"></polygon>
                <path d="M124.325707,96.094062 C124.209193,95.8665822 124.058536,95.6873299 123.836178,95.5106383 C123.493891,95.2383455 122.954427,94.9976352 122.295035,94.8358813 C121.63863,94.6715667 120.879795,94.5832209 120.145714,94.5375542 C113.400278,94.1103361 106.662097,94.1026539 99.9798259,94.4957287 C99.9580595,94.4957287 99.9367199,94.4987162 99.9149536,94.499143 C99.8428259,94.5034109 99.7702713,94.5063984 99.7032651,94.5170682 C99.6575984,94.5217629 99.6110782,94.5209093 99.5658383,94.5285916 C99.8748352,94.9084358 100.099754,95.2972427 100.253399,95.7603112 C101.006259,98.0675449 100.947362,100.70042 100.4621,103.06143 C100.174869,104.459171 99.6226016,105.800149 98.8232215,106.983641 C98.4071,107.599501 97.9214115,108.081775 97.4028601,108.603314 C97.3627417,108.64386 97.3221966,108.684831 97.2816514,108.725803 C98.267966,108.735193 99.2542807,108.691233 100.237608,108.615264 C101.110823,108.547405 101.934103,108.382236 102.7911,108.264015 C103.65834,108.144087 104.520458,107.922582 105.376602,107.726685 C107.135835,107.323794 108.887387,106.884199 110.615891,106.363087 C113.543253,105.479629 116.304592,104.384056 118.719804,102.919308 C120.331368,101.94281 121.79014,100.804984 123.062405,99.451629 C123.219891,99.2839 123.373963,99.1063548 123.517365,98.9232614 C123.837885,98.5165293 124.105056,98.0812022 124.269371,97.6821523 C124.43582,97.2805417 124.496851,96.9292925 124.476792,96.6450495 C124.463134,96.4529935 124.420028,96.2835573 124.325707,96.094062" id="Fill-16" fill="#00C0C8"></path>
                <polygon id="Fill-18" fill="#FFFFFF" points="48.6603087 104.985703 48.6603087 99.5394199 53.3772059 102.262348 58.0936763 104.985703 53.3772059 107.709059 48.6603087 110.431987"></polygon>
                <polygon id="Fill-20" fill="#FFFFFF" points="67.2755358 104.985703 67.2755358 110.431987 62.5590654 107.709059 57.8421682 104.985703 62.5590654 102.262348 67.2755358 99.5394199"></polygon>
                <path d="M138.471107,92.7827165 C138.461291,92.8309439 138.444219,92.877891 138.420745,92.9201433 C138.325998,93.0900062 138.154428,93.2026791 137.984992,93.3016947 C136.897527,93.9380405 135.484421,93.842866 134.264225,93.8407321 C130.502487,93.8334766 126.764222,94.0280935 122.997362,94.1138785 C117.67058,94.235514 112.337823,94.2683769 107.014029,94.0298006 C105.448985,93.9598069 104.020942,94.090405 102.582228,93.3166324 C102.282194,93.1553053 101.492203,92.2748349 102.284755,92.2530685 C108.681929,92.0763769 115.093188,91.7063489 121.503166,91.7383583 C127.008347,91.759271 132.510113,91.9201713 138.001636,92.3030031 C138.122418,92.3111121 138.250456,92.3222087 138.346911,92.3934829 C138.465132,92.4805483 138.500555,92.6380343 138.471107,92.7827165" id="Fill-22" fill="#00C0C8"></path>
                <path d="M133.950021,92.2711645 L106.860299,92.4201146 C106.302909,92.4231022 105.853071,92.8776349 105.856486,93.4350243 L105.859046,93.9458935 C105.862034,94.5037097 106.316567,94.9531209 106.873956,94.9501333 L133.964106,94.8011832 C134.521495,94.7977688 134.970906,94.3436629 134.967919,93.7858467 L134.964931,93.2749776 C134.961944,92.7175882 134.507411,92.2681769 133.950021,92.2711645" id="Fill-24" fill="#00C0C8"></path>
                <path d="M118.607217,88.6877396 C117.026808,89.1670262 115.275684,89.2822598 113.613332,89.0338673 C113.160506,88.9664343 112.714509,88.8716866 112.280036,88.7496243 C112.010731,88.6736555 111.170805,88.5392162 111.149893,88.2379016 C111.072217,87.1098922 111.158002,85.9532879 111.159282,84.8205838 C111.159709,84.2482567 111.160562,83.6759296 111.160989,83.1031757 L113.172456,83.1053097 C113.422129,83.1057364 113.624855,82.9456897 113.625282,82.7480854 C113.625709,82.3759234 114.373874,81.9627894 115.447254,81.963643 C116.521061,81.9649234 117.268372,82.3797645 117.267945,82.7514997 C117.267945,82.949104 117.470245,83.1095776 117.720344,83.1100044 L119.731385,83.1121383 C119.730104,84.4240947 119.728824,85.7356243 119.727544,87.0475807 C119.727117,87.3608455 119.72669,87.6741103 119.726263,87.9873751 C119.726263,88.0577956 119.76126,88.2093065 119.714313,88.2716181 C119.710045,88.2771664 119.70535,88.2827146 119.699802,88.2882629 C119.529086,88.4705028 118.854755,88.6126243 118.607217,88.6877396 L118.607217,88.6877396 Z M116.773721,63.4921165 L114.15493,63.489129 L114.15621,62.2574093 L116.775002,62.2599701 L116.773721,63.4921165 Z M116.472407,65.4242006 L114.451977,65.4220667 L114.453257,64.3947801 L116.473687,64.396914 L116.472407,65.4242006 Z M110.255338,80.6495526 L110.243815,91.7188112 C110.242961,92.6628735 111.009905,93.4319514 111.953967,93.432805 L118.914079,93.4396336 C119.857715,93.440914 120.626793,92.6735433 120.627646,91.729481 C120.627646,91.7264935 120.638316,80.6606492 120.638316,80.6606492 C120.641731,80.4707271 120.678435,77.2569888 119.406597,74.9945682 C117.407079,71.4368361 117.374643,68.9213283 117.374217,68.8965745 L117.378911,64.3708798 C117.553469,64.3081414 117.678519,64.1416928 117.678945,63.9453688 L117.681079,61.8084249 C117.681079,61.5583252 117.47878,61.3555994 117.228681,61.3551726 L113.704238,61.3517583 C113.454139,61.3513315 113.251413,61.5540573 113.250986,61.8037302 L113.248852,63.9411009 C113.248852,64.1369981 113.373475,64.3038735 113.548033,64.3666118 L113.543338,68.8935869 C113.543338,68.9174872 113.505354,71.4325682 111.498581,74.986886 C110.223329,77.2450386 110.25235,80.456643 110.255338,80.6495526 L110.255338,80.6495526 Z" id="Fill-26" fill="#00C0C8"></path>
                <path d="M126.523939,77.9234234 L123.798023,77.9208626 L123.852225,75.9810963 L126.473577,75.983657 L126.523939,77.9234234 Z M122.642699,93.1338377 C122.704157,93.3186383 122.877007,93.4432614 123.071624,93.4436882 L127.218755,93.4475293 C127.413372,93.4479561 127.586649,93.3237598 127.648534,93.1389592 C127.710418,92.9545854 127.647253,92.7510059 127.491901,92.6336383 L125.599936,91.2060215 L125.605911,85.5617069 L125.663954,85.5617069 C126.718555,85.5625604 127.576833,84.7055636 127.578113,83.6513891 L127.578113,83.6390121 L127.367278,75.5197349 C127.360876,75.2747567 127.160284,75.0792863 126.915306,75.0788595 L123.41263,75.0754452 C123.167225,75.0750184 122.966633,75.270062 122.959378,75.515467 L122.732325,83.6343174 L122.732325,83.6466944 C122.731045,84.7008688 123.588041,85.5595729 124.642643,85.5604265 L124.700686,85.5604265 L124.694711,91.2051679 L122.800185,92.6289436 C122.644406,92.7458844 122.580814,92.9494639 122.642699,93.1338377 L122.642699,93.1338377 Z" id="Fill-28" fill="#00C0C8"></path>
                <path d="M132.653515,77.9296118 L129.927599,77.9270511 L129.981802,75.9872847 L132.603154,75.9898455 L132.653515,77.9296118 Z M128.772275,93.1400262 C128.833733,93.3248268 129.006583,93.4494498 129.2012,93.4498766 L133.348331,93.4537178 C133.542948,93.4541445 133.716225,93.3299483 133.77811,93.1451477 C133.839995,92.9607738 133.77683,92.7571944 133.621478,92.6398268 L131.729512,91.21221 L131.735487,85.5678953 L131.793531,85.5678953 C132.847705,85.5687489 133.706409,84.711752 133.707689,83.6575776 C133.707689,83.6533097 133.707689,83.6494685 133.707263,83.6452006 L133.496855,75.5259234 C133.490453,75.2809452 133.289861,75.0854748 133.044883,75.085048 L129.542207,75.0816336 C129.296802,75.0812069 129.09621,75.2762505 129.088954,75.5216555 L128.861901,83.6405059 L128.861901,83.6528829 C128.860621,84.7070573 129.717618,85.5657614 130.771792,85.566615 L130.830263,85.566615 L130.824288,91.2113564 L128.929761,92.6351321 C128.773982,92.7520729 128.71039,92.9556523 128.772275,93.1400262 L128.772275,93.1400262 Z" id="Fill-30" fill="#00C0C8"></path>
            </g>
        </g>
    </g>
</svg>