<?xml version="1.0" encoding="UTF-8"?>
<svg width="124px" height="136px" viewBox="0 0 124 136" version="1.1" xmlns="http://www.w3.org/2000/svg" xmlns:xlink="http://www.w3.org/1999/xlink">
    <!-- Generator: Sketch 42 (36781) - http://www.bohemiancoding.com/sketch -->
    <title>enjoyBot</title>
    <desc>Created with Sketch.</desc>
    <defs>
        <polygon id="path-1" points="0.0178496815 126.511628 89.1327796 126.511628 89.1327796 0.254050104 0.0178496815 0.254050104 0.0178496815 126.511628"></polygon>
    </defs>
    <g id="•-Landing-Page" stroke="none" stroke-width="1" fill="none" fill-rule="evenodd">
        <g id="EezyLanding" transform="translate(-810.000000, -884.000000)">
            <g id="enjoyBot" transform="translate(810.000000, 884.000000)">
                <path d="M33.2672255,104.002521 L33.2672255,104.002521 C33.736372,105.497335 34.4531236,106.777474 35.2295057,107.687172 C35.6165121,108.142219 36.0169452,108.503963 36.3932892,108.760149 C36.770028,109.017521 37.1191236,109.166963 37.4054293,109.230219 C37.6964739,109.292684 37.9164357,109.280033 38.1253401,109.215591 L38.1261299,109.215195 C38.258028,109.173288 38.378079,109.111614 38.5012892,109.019102 C38.6849197,108.881126 38.878028,108.665265 39.0545503,108.348986 C39.2310726,108.034684 39.3870599,107.623916 39.4948688,107.137242 C39.6390089,106.489265 39.6970599,105.709242 39.6405885,104.859242 C39.584907,104.009242 39.4162828,103.089265 39.122079,102.155056 C38.6529325,100.660242 37.9361809,99.379707 37.1597987,98.4704047 C36.7727924,98.0149628 36.3723592,97.653614 35.9960153,97.3970326 C35.6196713,97.1396605 35.2705758,96.9902186 34.9838752,96.9273581 C34.6932255,96.8644977 34.4736586,96.8771488 34.2627796,96.941986 C34.1308815,96.983893 34.0112255,97.0455674 33.8880153,97.1380791 C33.7043847,97.2760558 33.5116713,97.4915209 33.335149,97.8074047 C33.1586268,98.1213116 33.0026395,98.5316837 32.8952255,99.0179628 C32.7510854,99.6663349 32.6930344,100.446753 32.7491108,101.297149 C32.8043975,102.147544 32.9730217,103.067916 33.2672255,104.002521" id="Fill-1" fill="#00C0C8"></path>
                <path d="M101.230164,100.726581 C100.740878,101.574605 100.377566,102.43607 100.139043,103.254047 C99.9001261,104.071628 99.7883682,104.846116 99.7887631,105.509907 C99.7875783,106.175279 99.9024955,106.724419 100.07191,107.104349 C100.156024,107.295302 100.251196,107.445535 100.351107,107.562558 C100.451413,107.679581 100.555273,107.765372 100.674929,107.834953 C100.866457,107.94407 101.078521,108.003767 101.375489,108.005744 C101.668903,108.006535 102.042088,107.936163 102.465425,107.766558 C103.100037,107.514326 103.836534,107.039116 104.550126,106.36307 C105.265298,105.688209 105.959935,104.817651 106.546368,103.799628 L106.546763,103.799233 C107.03605,102.951209 107.399757,102.089744 107.638279,101.271767 C107.876801,100.454186 107.988954,99.680093 107.988559,99.0163023 C107.989349,98.3509302 107.874432,97.8017907 107.705413,97.4218605 C107.621298,97.230907 107.525731,97.0806744 107.42582,96.9636512 C107.32512,96.8466279 107.221655,96.7608372 107.101999,96.6908605 L107.101209,96.6904651 C106.91126,96.5821395 106.699196,96.5220465 106.401438,96.5200698 C106.108419,96.5196744 105.734839,96.5896512 105.311897,96.7596512 C104.922521,96.9142326 104.494839,97.1534186 104.058075,97.4704884 C103.691604,97.801 103.318814,98.1263721 102.940101,98.445814 C102.326814,99.074814 101.738011,99.8453488 101.230164,100.726581" id="Fill-3" fill="#00C0C8"></path>
                <path d="M110.850748,116.976842 C112.422073,117.937935 114.021041,118.757493 115.651996,119.372656 C117.283346,119.987819 118.945104,120.399377 120.657015,120.552377 C120.869869,120.571353 121.087066,120.581633 121.301894,120.581633 C121.942034,120.584005 122.56006,120.482005 122.989716,120.295795 C123.206518,120.203679 123.376327,120.095749 123.507831,119.977144 C123.639729,119.857353 123.738455,119.72926 123.822569,119.550958 L123.823359,119.549772 C123.92169,119.336284 123.966315,119.125167 123.967499,118.861074 C123.970264,118.456237 123.837181,117.925284 123.578124,117.352819 C123.322225,116.780353 122.952595,116.177051 122.566378,115.616051 C118.972748,110.384795 115.071092,105.404586 110.901296,100.704284 C110.82271,101.174749 110.717665,101.650749 110.577869,102.130702 C110.267474,103.195772 109.80741,104.276656 109.198862,105.332237 L109.198862,105.332633 C108.223054,107.021167 107.006353,108.413191 105.678684,109.418167 C105.01406,109.92026 104.320213,110.325888 103.601487,110.613702 C103.306493,110.731516 103.005971,110.823633 102.702684,110.898353 C105.346569,113.1044 108.05127,115.265772 110.850748,116.976842" id="Fill-5" fill="#00C0C8"></path>
                <path d="M82.7748178,63.6357837 C79.5986013,63.6357837 79.4449834,68.0008302 79.4449834,68.0008302 L86.1563847,68.0008302 C86.1563847,63.4179465 82.7748178,63.6357837 82.7748178,63.6357837" id="Fill-7" fill="#00C0C8"></path>
                <path d="M56.872442,63.6357837 C53.6958306,63.6357837 53.5422127,68.0008302 53.5422127,68.0008302 L60.2540089,68.0008302 C60.2540089,63.4179465 56.872442,63.6357837 56.872442,63.6357837" id="Fill-9" fill="#00C0C8"></path>
                <g id="Group-13" transform="translate(25.273885, 9.278442)">
                    <mask id="mask-2" fill="white">
                        <use xlink:href="#path-1"></use>
                    </mask>
                    <g id="Clip-12"></g>
                    <path d="M75.0552255,69.6270977 C74.3262318,71.6876558 73.2248433,73.5983767 71.7222318,75.2319581 C70.150907,76.9390744 68.4342573,78.2785163 66.5888688,79.3408186 C63.8217732,80.932493 60.7549452,81.8995163 57.482372,82.4664465 C54.2113783,83.0341674 50.7425376,83.1978419 47.2160408,83.1974465 C46.917493,83.1974465 46.6169707,83.1907256 46.3176331,83.1883535 L46.3176331,75.5794698 C47.6670217,75.4608651 48.9694166,75.212586 50.2232382,74.828307 C52.0382191,74.2716558 53.638372,73.5232605 55.0209325,72.5823302 C56.4038879,71.6410047 57.5431873,70.5506326 58.4364611,69.3100279 C59.3301299,68.0690279 59.8624611,66.7430279 60.0350344,65.3320279 L46.3176331,65.3320279 L46.3176331,48.1940512 C47.9470089,46.9601674 49.7315822,46.0180512 51.6101427,45.3597953 C53.8610981,44.5714698 56.2439516,44.1871907 58.6295694,44.1871907 C59.3392127,44.1871907 60.0488561,44.2211907 60.7549452,44.2887953 C63.1761045,44.5200744 65.2999006,45.2226093 67.1531873,46.2770047 C69.9297605,47.8580047 72.1084484,50.2467023 73.6315949,53.0766093 C75.1535567,55.9033535 76.0065503,59.1649814 76.123442,62.4076326 L76.123442,62.4048651 C76.131735,62.657493 76.1368688,62.9085395 76.1368688,63.1584 C76.1368688,65.3589116 75.7838242,67.5673302 75.0552255,69.6270977 L75.0552255,69.6270977 Z M43.255149,65.3320279 L29.2585503,65.3320279 C29.4891745,66.7003302 30.0226904,68.0053767 30.8575185,69.2459814 C31.694321,70.486586 32.7889962,71.5884233 34.1427287,72.5510977 C35.4976459,73.5133767 37.0393529,74.2716558 38.7682446,74.828307 C40.1523847,75.2738651 41.6494675,75.5375628 43.255149,75.6265163 L43.255149,83.1840047 C42.8152255,83.1887488 42.3733274,83.1974465 41.9345885,83.1974465 C37.2320662,83.1990279 32.6334038,82.904493 28.4675567,81.7579814 C26.3836459,81.1851209 24.407149,80.4023302 22.5617605,79.3408186 C20.716372,78.2785163 19.0001172,76.9390744 17.4287924,75.2319581 C15.9261809,73.5983767 14.8247924,71.6876558 14.0954038,69.6270977 C13.3668051,67.5673302 13.0137605,65.3585163 13.0137605,63.1584 C13.0137605,62.9077488 13.0184994,62.6578884 13.0275822,62.409214 L13.0275822,62.4076326 C13.1057732,60.2462605 13.5101554,58.0754 14.222958,56.0314465 C15.2919643,52.9635395 17.0528433,50.1897721 19.422665,48.1137953 C20.6081682,47.0744233 21.9464994,46.2070279 23.4388433,45.5539116 C24.9315822,44.9011907 26.5799134,44.4619581 28.3964739,44.2887953 C29.1021682,44.2211907 29.8118115,44.1871907 30.520665,44.1871907 C32.9062828,44.1871907 35.2891363,44.5714698 37.5400917,45.3597953 C39.5825376,46.0749814 41.5140153,47.1250279 43.255149,48.5221907 L43.255149,65.3320279 Z M32.0880408,6.37049302 C32.3068178,5.76877209 32.6255057,5.24295814 33.0223847,4.83337674 L33.0223847,4.83377209 C33.3758242,4.46767907 33.7580917,4.14902791 34.1304866,3.92605116 C34.5044611,3.70188837 34.8579006,3.57458605 35.1912,3.53663256 L35.1915949,3.53663256 C35.3167796,3.52200465 35.426958,3.51607442 35.5205503,3.51607442 C35.7539389,3.51607442 35.8842573,3.55205116 35.9427032,3.5749814 C35.9873274,3.59316744 35.9952255,3.60226047 35.9999643,3.6058186 C36.0039134,3.61095814 36.013786,3.61293488 36.0406395,3.68133023 C36.0655185,3.74695814 36.0939516,3.8778186 36.0931618,4.05888837 C36.0939516,4.2858186 36.0489325,4.58628372 35.9537605,4.89702791 C35.8593783,5.20816744 35.7168178,5.5299814 35.5493783,5.80949302 L35.5493783,5.80949302 C35.0873401,6.58833023 34.3559771,7.30667907 33.4583592,7.97679535 C32.9477478,8.35988837 32.3869834,8.72321395 31.8108178,9.08021395 C31.777251,8.82758605 31.7543465,8.57179535 31.7543465,8.31284186 C31.7543465,7.64391163 31.8692637,6.97102791 32.0880408,6.37049302 L32.0880408,6.37049302 Z M85.6678879,43.9677721 C83.4339134,39.4236326 80.1913529,35.3139814 76.1668815,31.8519116 C68.1752,24.9760047 57.1016841,20.6726326 44.8355567,20.6137256 C44.4600025,18.7856326 44.0741809,16.936586 43.6077987,15.0827953 L43.6077987,15.0820047 C43.5931873,15.0250744 43.5631745,14.8906558 43.5276331,14.7250047 C43.4644484,14.4312605 43.379149,14.0287953 43.2701554,13.5883767 C43.1876204,13.2570744 43.0916586,12.9036326 42.9759516,12.5470279 C42.8890726,12.2793767 42.7911363,12.0097488 42.6750344,11.7420977 C42.4969325,11.3408186 42.2935567,10.942307 41.9444611,10.5430047 C41.7675439,10.3449349 41.5471873,10.143307 41.2478497,9.97607442 C40.9520662,9.80963256 40.5634803,9.68905116 40.1606777,9.69142326 C39.8988561,9.69063256 39.6397987,9.73965581 39.4095694,9.82109767 C39.0620535,9.94405116 38.7804866,10.1306558 38.5443338,10.3346558 C38.3069962,10.5398419 38.1095439,10.7667721 37.9247287,11.0170279 L37.9247287,11.0166326 C37.6818624,11.3467488 37.4638752,11.6167721 37.2680025,11.8251209 C36.9706395,12.1398186 36.7412,12.3066558 36.5078115,12.4153767 C36.3889452,12.4695395 36.2633656,12.5118419 36.1061936,12.5438651 C35.9494166,12.5750977 35.7606522,12.5952605 35.5252892,12.5952605 C35.3306013,12.5952605 35.104321,12.5814233 34.844079,12.5490047 C34.3145121,12.4821907 33.8923592,12.3236558 33.5266777,12.0975163 C33.463493,12.0583767 33.4066268,12.0085628 33.3462064,11.9646791 C34.0203083,11.5507488 34.7216586,11.1036093 35.4095822,10.5892605 C36.5026777,9.76970233 37.5693146,8.78212093 38.3472764,7.48142326 L38.3472764,7.48142326 C38.6513529,6.97063256 38.8957987,6.42109767 39.0707414,5.84784186 C39.2444994,5.27379535 39.3507287,4.67602791 39.3515185,4.05888837 C39.3515185,3.62242326 39.2974166,3.17370233 39.1564357,2.72458605 C39.0509962,2.38893488 38.8942191,2.05249302 38.6746522,1.74016744 C38.3484611,1.27088837 37.8714166,0.867632558 37.3189452,0.617376744 C36.7652892,0.36395814 36.1547669,0.253655814 35.5205503,0.254051163 C35.2919006,0.254051163 35.0593019,0.268283721 34.8211745,0.295562791 C33.9310599,0.397562791 33.1361172,0.718586047 32.4533274,1.12895814 C31.768958,1.54130698 31.186079,2.04379535 30.6821809,2.56367907 L30.6821809,2.56367907 C29.9275185,3.34449302 29.3829452,4.27356279 29.0259516,5.25521395 C28.668958,6.23805116 28.4963847,7.27702791 28.4963847,8.31284186 C28.4963847,9.15137674 28.6101172,9.98912093 28.8435057,10.7948419 C28.8442955,10.7976093 28.8454803,10.8007721 28.8454803,10.8007721 C26.0302064,12.2821442 22.9898369,13.3349581 19.8629834,13.8805395 C18.9764229,14.0351209 18.3832764,14.8799814 18.5376841,15.7675395 C18.6920917,16.6550977 19.5360025,17.2489116 20.4225631,17.0943302 L20.4225631,17.0943302 C23.9052255,16.4862837 27.2788943,15.3207953 30.400614,13.6765395 C30.5159261,13.8066093 30.6359771,13.9335163 30.7627414,14.0556791 C31.2342573,14.5091442 31.7855439,14.8997488 32.4055439,15.1966558 C33.025149,15.4939581 33.7118879,15.6959814 34.4436459,15.7865163 C34.8168306,15.8327721 35.1757987,15.8572837 35.5252892,15.8572837 C36.0864484,15.8576791 36.625493,15.7924465 37.1353146,15.6489349 C37.9022191,15.4366326 38.5779006,15.0373302 39.1236586,14.5597488 C39.4198369,14.3023767 39.6828433,14.0248419 39.9312382,13.7334698 C40.0157478,14.0133767 40.0951236,14.3130512 40.1622573,14.6004698 C40.221493,14.8519116 40.2736204,15.0930744 40.3198242,15.3077488 C40.3668178,15.5247953 40.4047287,15.7066558 40.448958,15.8833767 L40.448958,15.8821907 C40.8493911,17.4631907 41.1905885,19.0758186 41.5258624,20.7050512 C33.4149197,21.1743302 25.9062064,23.4946326 19.575493,27.1741442 C12.4565503,31.3106791 6.83271592,37.1523535 3.4823465,43.9677721 C1.24837197,48.5130977 0.0186394904,53.4901442 0.0178496815,58.7221907 C0.0190343949,65.1066791 1.84941656,71.1151907 5.10500892,76.4160279 C6.52429554,78.7276326 8.17855032,80.9016558 10.0610599,82.8550744 C11.8329962,84.6930512 14.0622318,86.2859116 15.557735,88.3448884 C16.8395949,90.1093302 17.7636713,91.7235395 18.0250981,93.9398651 C18.269149,96.0051674 17.9721809,98.1459814 17.5425248,100.117191 C16.8593401,103.251912 16.1757605,106.386633 15.4925758,109.520958 C14.9610344,111.95947 14.429493,114.397586 13.8979516,116.836098 C13.4347287,118.960702 13.4351236,120.923214 13.9248051,123.046237 C14.8062318,126.866888 18.4950344,126.502377 21.580028,126.502377 L32.2116459,126.502377 L45.3821045,126.502377 L58.391442,126.502377 L68.5408815,126.502377 C69.8223465,126.502377 71.9188943,126.501981 73.0183083,125.783237 C74.1264102,125.058563 74.8036713,123.876074 75.1871236,122.625981 C75.7518369,120.78326 75.6420535,118.639679 75.2574166,116.858633 C74.7045503,114.299144 74.1516841,111.739656 73.5988178,109.180167 C73.0842573,106.798981 72.5700917,104.4174 72.0555312,102.036214 C71.5709834,99.7934 70.8131618,97.455307 70.9999516,95.1357953 C71.1152637,93.7030512 71.4947669,92.3027256 72.0950217,90.9980744 C73.110321,88.7912372 74.8360535,86.7781209 76.6376076,85.1809116 C78.7748306,83.2860047 80.7201299,81.1716791 82.4040025,78.8632372 C82.9880662,78.0634465 83.5401427,77.2403302 84.0578624,76.3962605 C87.3055567,71.0997721 89.1315949,65.0987721 89.1327796,58.7221907 C89.1319898,53.4901442 87.9022573,48.5130977 85.6678879,43.9677721 L85.6678879,43.9677721 Z" id="Fill-11" fill="#00C0C8" mask="url(#mask-2)"></path>
                </g>
                <polygon id="Fill-14" fill="#00C0C8" points="60.0950599 9.57392558 60.0950599 9.57392558 60.0955599 9.57392558"></polygon>
                <path d="M8.20149427,98.1519512 C8.30930318,97.9412302 8.44870446,97.7751837 8.65444968,97.6115093 C8.97116306,97.3592767 9.47032229,97.1363 10.0804497,96.9864628 C10.6878127,96.8342535 11.3899529,96.7524163 12.0691885,96.710114 C18.3106535,96.3143698 24.5454051,96.3072535 30.7284242,96.6713698 C30.7485643,96.6713698 30.7683096,96.6741372 30.7884497,96.6745326 C30.8551885,96.678486 30.9223223,96.6812535 30.9843223,96.6911372 C31.0265771,96.695486 31.0696217,96.6946953 31.1114815,96.7018116 C30.8255707,97.0536721 30.6174561,97.4138349 30.4752904,97.8427884 C29.778679,99.9800442 29.8331758,102.418951 30.2821822,104.606021 C30.5479529,105.900788 31.0589592,107.142974 31.7986153,108.239277 C32.184042,108.809765 32.6330484,109.256509 33.1128573,109.739626 C33.1499783,109.777184 33.1874943,109.815137 33.2250102,109.853091 C32.312386,109.861788 31.3997618,109.821067 30.4902968,109.750695 C29.6819274,109.687835 28.9201567,109.534835 28.1271885,109.425323 C27.3247427,109.31423 26.5270357,109.109044 25.7348573,108.927579 C24.1070611,108.55437 22.4863732,108.14716 20.8870102,107.66444 C18.1783605,106.846067 15.6233287,105.831207 13.3885643,104.47437 C11.8974051,103.569812 10.5476217,102.515812 9.37041146,101.26216 C9.22469172,101.106788 9.08213121,100.942323 8.94944331,100.772719 C8.65287006,100.395951 8.40565987,99.9926953 8.25362166,99.6230442 C8.09960892,99.2510209 8.04313758,98.9256488 8.06169809,98.6623465 C8.07433503,98.4844395 8.11422038,98.327486 8.20149427,98.1519512" id="Fill-16" fill="#00C0C8"></path>
                <polygon id="Fill-18" fill="#00C0C8" points="13.6479771 105.700109 12.3041172 106.146063 3.82472866 80.5456442 5.16858854 80.0992953"></polygon>
                <path d="M26.9846904,67.5307209 C26.0614038,67.9142093 25.2301299,68.4534651 24.3068433,68.842093 C22.7536841,69.4952093 21.154321,70.0467209 19.5553529,70.5776744 C17.5677987,71.2375116 15.8120535,72.257907 14.3272127,73.6151395 C12.3262318,73.415093 10.3090599,73.6467674 8.32190064,74.3066047 C6.81652484,74.8063256 5.30048662,75.2874651 3.76509809,75.685186 C3.27067771,75.8132791 0.00244840764,76.4422791 0.00679235669,76.3932558 C-0.0575770701,77.1357209 0.356677707,77.892814 0.66430828,78.538814 C1.19032102,79.6426279 1.83875414,80.699 2.63488153,81.6462558 C5.70052484,85.2921628 9.21991338,85.1027907 11.6327796,84.301814 C13.8264739,83.5735814 15.603149,82.6176279 16.9244994,81.456093 C18.6766904,81.5972326 20.6717478,81.3011163 22.8658369,80.5724884 C25.2482955,79.7817907 28.1425503,77.8414186 28.3992382,73.0905116 C28.4545248,72.0661628 28.3743592,70.9287442 28.1966522,69.8838372 C28.0525121,69.035814 27.7334293,68.1526047 27.3037732,67.406186 C27.1959643,67.4453256 27.089735,67.4872326 26.9846904,67.5307209" id="Fill-20" fill="#00C0C8"></path>
                <path d="M3.95070318,78.4756767 C5.18635924,78.0965372 6.42201529,77.7173977 7.65767134,77.3382581 C9.37787516,76.8100721 11.0577987,76.0664209 12.7997223,77.0247465 C13.7798752,77.5600488 14.0930344,78.3222814 14.6376076,79.220514 C14.694079,79.3142116 14.7533146,79.4209558 14.727251,79.5273047 C14.7039516,79.6241651 14.6174675,79.6901884 14.5357223,79.7471186 C13.0741809,80.7690953 11.0874166,81.7863279 9.27125096,81.7867233 C7.69479236,81.7867233 6.5740535,80.7457698 5.41145478,79.8143279 C5.23137834,79.6696302 4.05298344,78.4444442 3.95070318,78.4756767" id="Fill-22" fill="#FFFFFF"></path>
                <path d="M25.5007185,73.1451488 C25.1243745,74.5877767 24.8471516,76.0924744 23.5830624,77.0357767 C22.1266548,78.1218 19.9262471,78.4942186 18.1444382,78.5495674 C18.0449223,78.5523349 17.9359287,78.5511488 17.8593172,78.4874977 C17.7752025,78.4175209 17.7590115,78.2969395 17.748349,78.1878233 C17.6488331,77.1417302 17.4450624,76.3435209 17.9114446,75.3278698 C18.7364,73.5175674 20.5276866,73.1087767 22.2222217,72.5031023 C23.4393172,72.0682186 24.6564127,71.6329395 25.8735083,71.1980558 C25.7724127,71.2340326 25.5591643,72.9217767 25.5007185,73.1451488" id="Fill-24" fill="#FFFFFF"></path>
                <path d="M13.6475427,105.949021 C13.6210841,106.324207 13.2956828,106.607277 12.9209185,106.580788 C12.5457592,106.5543 12.2634025,106.228533 12.2898611,105.852951 C12.3163197,105.477765 12.641721,105.195091 13.0164854,105.221579 C13.3916446,105.248067 13.6740013,105.573835 13.6475427,105.949021" id="Fill-26" fill="#00C0C8"></path>
                <path d="M103.328647,38.2916698 C103.328647,38.2916698 96.9153987,32.6757395 83.7240102,28.2660186 L105.373857,6.60169302 L103.328647,38.2916698 Z" id="Fill-28" fill="#00C0C8"></path>
                <polygon id="Fill-30" fill="#00C0C8" points="105.305697 6.69349302 109.85855 3.39193488 111.481608 5.71342326"></polygon>
                <polygon id="Fill-32" fill="#00C0C8" points="105.305697 0.000118604651 108.39385 0.46425814 105.305697 6.7839093"></polygon>
                <polygon id="Fill-34" fill="#FFFFFF" points="70.6418522 112.264956 74.7326675 104.506235 68.4157758 104.506235 65.8899669 113.611514 68.4209096 113.611514 66.2686803 121.370235 66.2702599 121.370235 65.8899669 122.751188 67.0158395 121.370235 67.0268968 121.370235 67.8404 120.359723 74.3531643 112.264956"></polygon>
            </g>
        </g>
    </g>
</svg>