<?xml version="1.0" encoding="UTF-8"?>
<svg width="127px" height="137px" viewBox="0 0 127 137" version="1.1" xmlns="http://www.w3.org/2000/svg" xmlns:xlink="http://www.w3.org/1999/xlink">
    <!-- Generator: Sketch 42 (36781) - http://www.bohemiancoding.com/sketch -->
    <title>discoverBot</title>
    <desc>Created with Sketch.</desc>
    <defs>
        <polygon id="path-1" points="0.400775516 129.321534 91.597513 129.321534 91.597513 0.259692723 0.400775516 0.259692723 0.400775516 129.321534"></polygon>
        <polygon id="path-3" points="7.04357817 3.3603702 7.04357817 0.284314756 0.217067558 0.284314756 0.217067558 3.3603702 7.04357817 3.3603702"></polygon>
    </defs>
    <g id="•-Landing-Page" stroke="none" stroke-width="1" fill="none" fill-rule="evenodd">
        <g id="EezyLanding" transform="translate(-584.000000, -884.000000)">
            <g id="discoverBot" transform="translate(584.000000, 884.000000)">
                <path d="M92.2014445,103.994881 L92.2014445,103.994881 C91.4020758,105.382663 90.4022587,106.501294 89.4250729,107.236811 C88.9376923,107.605377 88.4575861,107.877356 88.0247631,108.04992 C87.591536,108.223291 87.2096333,108.295227 86.9093649,108.294418 C86.6050552,108.292398 86.3880375,108.23097 86.193651,108.120238 L86.1928428,108.119834 C86.0703914,108.048707 85.9641053,107.960607 85.8614563,107.840985 C85.7086953,107.662359 85.5636127,107.40412 85.4569224,107.049699 C85.3502322,106.696893 85.2851673,106.25235 85.2855714,105.742743 C85.2851673,105.064209 85.3999401,104.272923 85.6440345,103.437182 C85.8881289,102.601038 86.2603324,101.720439 86.7610493,100.853581 C87.5608221,99.4653947 88.5606392,98.3467634 89.5374209,97.6112472 C90.0252056,97.2426808 90.5049077,96.9707015 90.9377307,96.7981381 C91.3705537,96.6247664 91.7524563,96.5528313 92.0531289,96.5536395 C92.3570345,96.5556602 92.5740522,96.6166838 92.7700552,96.7282236 C92.8925065,96.7993504 92.9983885,96.8870466 93.1010375,97.0070732 C93.2537985,97.1852944 93.3988811,97.4431292 93.5055714,97.797551 C93.6122617,98.1499522 93.6769224,98.5940909 93.6769224,99.1028903 C93.6773265,99.7818283 93.5625537,100.573923 93.3180552,101.410067 C93.0743649,102.246616 92.7021614,103.127619 92.2014445,103.994881" id="Fill-1" fill="#00C0C8"></path>
                <path d="M23.2686215,100.853419 C23.7693383,101.720277 24.1411378,102.600876 24.3852322,103.437021 C24.6297307,104.272761 24.7440994,105.064451 24.7436953,105.742985 C24.7449077,106.423136 24.6273059,106.984472 24.4539342,107.372841 C24.3678546,107.568035 24.2704593,107.721605 24.1682145,107.841227 C24.0655655,107.96085 23.9592794,108.048546 23.836828,108.119673 C23.6408251,108.231212 23.4238074,108.292236 23.1199018,108.294257 C22.8196333,108.295065 22.4377307,108.22313 22.0045035,108.049758 C21.355067,107.791923 20.6013649,107.306159 19.8711024,106.615097 C19.1392233,105.925248 18.428359,105.035354 17.8282263,103.99472 L17.8278221,103.994316 C17.3271053,103.127457 16.9549018,102.246858 16.7108074,101.410714 C16.466713,100.574973 16.3519401,99.7836873 16.3523442,99.1051534 C16.351536,98.4250029 16.4691378,97.8636667 16.6421053,97.4752979 C16.728185,97.2801032 16.8259844,97.1265339 16.9282292,97.0069115 C17.0312823,96.8872891 17.1371643,96.7995929 17.2596156,96.7280619 L17.2604239,96.7276578 C17.4548103,96.6169263 17.671828,96.5554985 17.9765419,96.5534779 C18.2764062,96.5530737 18.658713,96.6246047 19.091536,96.7983805 C19.490008,96.9563953 19.9276805,97.2008938 20.3746481,97.5250059 C20.7496805,97.8628584 21.1311791,98.1954572 21.5187395,98.5219941 C22.1463531,99.1649646 22.7489106,99.9526136 23.2686215,100.853419" id="Fill-3" fill="#00C0C8"></path>
                <path d="M13.4233327,117.464608 C11.8153003,118.447048 10.1789788,119.284809 8.50992271,119.913635 C6.84046254,120.542461 5.13988437,120.96316 3.38798171,121.119558 C3.17015575,121.138956 2.94788437,121.149464 2.72803776,121.149464 C2.07294336,121.151888 1.44048024,121.047623 1.00078702,120.857278 C0.778919764,120.763116 0.605143953,120.652788 0.470568732,120.531549 C0.335589381,120.409098 0.234556932,120.27816 0.148477286,120.095897 L0.147669027,120.094685 C0.047040708,119.876455 0.0013740413,119.66065 0.000161651917,119.390691 C-0.00266725664,118.976862 0.133524484,118.434116 0.398633628,117.848936 C0.660509735,117.263756 1.03877522,116.647054 1.43401416,116.073594 C5.11159528,110.726148 9.10439764,105.635325 13.3716041,100.830626 C13.452026,101.31154 13.5595245,101.798113 13.7025864,102.288726 C14.0202324,103.377452 14.4910437,104.482343 15.1138077,105.561369 L15.1138077,105.561773 C16.1124124,107.287812 17.3575363,108.710753 18.7162206,109.738051 C19.3963711,110.251296 20.1064271,110.665933 20.8419434,110.960139 C21.1438283,111.08057 21.4513711,111.174732 21.7617428,111.251113 C19.0560938,113.506157 16.2882088,115.715535 13.4233327,117.464608" id="Fill-5" fill="#00C0C8"></path>
                <path d="M109.881072,120.096665 L109.881476,120.095857 C109.795397,120.277715 109.69396,120.409058 109.558981,120.531509 C109.358937,120.712559 109.061901,120.872594 108.66545,120.983326 C108.272232,121.094462 107.792125,121.150232 107.301108,121.149423 C107.081261,121.149423 106.85899,121.138916 106.641972,121.119518 C104.890069,120.963119 103.189087,120.54242 101.519627,119.913594 C99.0164469,118.971164 96.5856062,117.555497 94.2157891,115.892099 C92.1915029,114.471987 90.2140959,112.872845 88.2678068,111.251072 C88.5781785,111.174692 88.8857212,111.080529 89.1872021,110.960099 C90.2900723,110.517981 91.338385,109.808329 92.3091047,108.894996 C93.278208,107.980046 94.1676976,106.856565 94.9157419,105.561733 L94.9157419,105.561329 C95.53891,104.481494 96.0093171,103.376199 96.3269631,102.287473 C96.4696209,101.79686 96.5771195,101.310692 96.6575413,100.829777 C100.924748,105.634881 104.918358,110.726108 108.595535,116.073553 C108.990774,116.647013 109.36904,117.263715 109.630512,117.848491 C109.895621,118.434075 110.032217,118.976822 110.029388,119.39065 C110.027771,119.659801 109.982105,119.876819 109.881072,120.096665" id="Fill-7" fill="#00C0C8"></path>
                <path d="M68.1175316,62.9388103 C64.8671156,62.9388103 64.7099091,67.4008074 64.7099091,67.4008074 L71.578095,67.4008074 C71.578095,62.7161348 68.1175316,62.9388103 68.1175316,62.9388103" id="Fill-9" fill="#00C0C8"></path>
                <path d="M41.6100926,62.9388103 C38.3592726,62.9388103 38.2020661,67.4008074 38.2020661,67.4008074 L45.070656,67.4008074 C45.070656,62.7161348 41.6100926,62.9388103 41.6100926,62.9388103" id="Fill-11" fill="#00C0C8"></path>
                <g id="Group-15" transform="translate(8.890855, 7.374156)">
                    <mask id="mask-2" fill="white">
                        <use xlink:href="#path-1"></use>
                    </mask>
                    <g id="Clip-14"></g>
                    <path d="M77.1910941,71.1735611 C76.4450705,73.2798855 75.3179525,75.2330448 73.7802386,76.9029091 C72.1722062,78.6479416 70.415454,80.0171333 68.5269555,81.1030301 C65.695218,82.7300566 62.556746,83.7185581 59.2077224,84.2980802 C55.8603153,84.8784106 52.3104392,85.0457204 48.7015602,85.0453162 C48.3960381,85.0453162 48.0884953,85.038446 47.7821649,85.0360212 L47.7821649,77.2581392 C49.1630764,77.1369003 50.4958965,76.8831068 51.7790086,76.4902926 C53.6363891,75.9212779 55.273923,75.1562602 56.6887814,74.1944313 C58.104044,73.2321982 59.2699584,72.1176083 60.1841,70.849449 C61.0986457,69.5808855 61.6434127,68.2254342 61.8200174,66.783095 L47.7821649,66.783095 L47.7821649,49.2644726 C49.4496044,48.0031835 51.275867,47.0401422 53.1983124,46.3672661 C55.5018522,45.5614313 57.9403714,45.1686171 60.3817195,45.1686171 C61.1079407,45.1686171 61.8341619,45.2033723 62.556746,45.2724785 C65.0344658,45.5088944 67.2078758,46.227033 69.1044569,47.3048472 C71.9458935,48.9209622 74.1754776,51.3627145 75.7342062,54.2554755 C77.2917224,57.1450035 78.1646428,60.4790743 78.2842652,63.7937469 L78.2842652,63.790918 C78.2927519,64.0491569 78.2976015,64.3057794 78.2976015,64.5611894 C78.2980056,66.8105758 77.9367136,69.0680448 77.1910941,71.1735611 L77.1910941,71.1735611 Z M44.6481383,66.783095 L30.3245661,66.783095 C30.5605779,68.1817882 31.1065572,69.5158206 31.9608876,70.7839799 C32.8172386,72.0521392 33.9374864,73.178449 35.3228434,74.162505 C36.7094127,75.1461569 38.2871354,75.9212779 40.0564156,76.4902926 C41.4728906,76.9457469 43.0049466,77.2153015 44.6481383,77.3062307 L44.6481383,85.0315758 C44.1979378,85.0364254 43.7457165,85.0453162 43.2967283,85.0453162 C38.4843507,85.0469327 33.7782593,84.745856 29.5150941,83.5738796 C27.3825012,82.9882956 25.3598316,82.1881186 23.471333,81.1030301 C21.5828345,80.0171333 19.8264864,78.6479416 18.218454,76.9029091 C16.6807401,75.2330448 15.5536221,73.2798855 14.8071944,71.1735611 C14.0615749,69.0680448 13.7002829,66.8101717 13.7002829,64.5611894 C13.7002829,64.3049711 13.7051324,64.0495611 13.7144274,63.7953634 L13.7144274,63.7937469 C13.7944451,61.5843693 14.208274,59.3652926 14.9377283,57.2759416 C16.0317077,54.1398944 17.8337224,51.3045198 20.2589053,49.1824342 C21.4721029,48.119977 22.8416988,47.2333162 24.3689053,46.5656938 C25.8965159,45.8984755 27.5833537,45.4494873 29.4423507,45.2724785 C30.1645307,45.2033723 30.8907519,45.1686171 31.6161649,45.1686171 C34.057513,45.1686171 36.4960322,45.5614313 38.799572,46.3672661 C40.8897313,47.0983369 42.8663301,48.1717056 44.6481383,49.5999003 L44.6481383,66.783095 Z M33.220156,6.51198584 C33.444044,5.89690029 33.7701767,5.35940767 34.1763271,4.9407292 L34.1763271,4.94113333 C34.5380233,4.56690914 34.9292209,4.24118053 35.3103153,4.01325133 C35.6930263,3.78410973 36.0547224,3.65397994 36.395808,3.61518348 L36.3962121,3.61518348 C36.5243212,3.60023068 36.6370735,3.59416873 36.7328522,3.59416873 C36.9716929,3.59416873 37.1050558,3.63094454 37.164867,3.65438407 C37.2105336,3.67297404 37.2186162,3.68226903 37.2234658,3.68590619 C37.2275071,3.69115988 37.2376103,3.69318053 37.2650912,3.76309499 C37.2905513,3.83018053 37.3196487,3.96394749 37.3188404,4.14903894 C37.3196487,4.38100944 37.2735779,4.68814808 37.1761826,5.0057941 C37.0795956,5.32384425 36.9337047,5.6528059 36.7623537,5.93852566 L36.7623537,5.93852566 C36.2895218,6.73466136 35.5410735,7.46896519 34.6224864,8.15396519 C34.0999466,8.54556696 33.5260823,8.91696224 32.9364569,9.28189145 C32.9021059,9.02365251 32.8786664,8.76218053 32.8786664,8.49747552 C32.8786664,7.81368791 32.9962681,7.125859 33.220156,6.51198584 L33.220156,6.51198584 Z M88.0516782,44.9443251 C85.7655159,40.2992572 82.4472062,36.098328 78.3287195,32.5593634 C70.1503448,25.5307381 58.8181413,21.1317853 46.2654658,21.0715699 C45.8811383,19.2028737 45.4863035,17.3127587 45.0090263,15.4177941 L45.0090263,15.4169858 C44.9940735,15.3587912 44.9633596,15.221387 44.9269879,15.0520566 C44.8623271,14.7517882 44.7750351,14.3403841 44.6634953,13.8901835 C44.5790322,13.5515227 44.4808286,13.1902307 44.3624186,12.8257056 C44.27351,12.5521097 44.1732858,12.2764932 44.0544717,12.0028973 C43.8722091,11.5927056 43.6640823,11.1853428 43.3068316,10.7771717 C43.1257814,10.5747027 42.900277,10.3685965 42.5939466,10.1976496 C42.2912534,10.0275109 41.8935897,9.90425133 41.4813773,9.90667611 C41.2134392,9.90586785 40.9483301,9.95597994 40.7127224,10.0392307 C40.3570882,10.164915 40.0689437,10.3556643 39.827274,10.5641953 C39.584392,10.7739386 39.3823271,11.0059091 39.1931944,11.2617233 L39.1931944,11.2613192 C38.9446546,11.5987676 38.7215749,11.8747882 38.5211265,12.0877646 C38.2168168,12.4094519 37.9820174,12.5799947 37.7431767,12.6911304 C37.6215336,12.7464962 37.4930204,12.7897381 37.3321767,12.8224726 C37.1717372,12.8543988 36.9785631,12.8750094 36.7377018,12.8750094 C36.5384658,12.8750094 36.3068994,12.8608649 36.0405779,12.8277263 C35.4986398,12.7594283 35.0666251,12.5973723 34.6924009,12.36621 C34.6277401,12.3262012 34.5695454,12.2752808 34.5077136,12.2304224 C35.1975631,11.8072985 35.9152976,11.3502277 36.6192917,10.8244549 C37.737923,9.98669381 38.8294776,8.97717758 39.6256133,7.64759056 L39.6256133,7.64759056 C39.9367932,7.12545487 40.1869496,6.56371445 40.3659791,5.97772625 C40.5437962,5.39092979 40.6525071,4.77988555 40.6533153,4.14903894 C40.6533153,3.70287965 40.5979496,3.24419233 40.4536752,2.78510088 C40.3457726,2.44199469 40.185333,2.09808024 39.9606369,1.7788177 C39.6268257,1.29911563 39.1386369,0.886903245 38.5732593,0.631089086 C38.0066693,0.372041888 37.3818847,0.259289676 36.7328522,0.259693805 C36.4988611,0.259693805 36.2608286,0.274242478 36.0171383,0.302127434 C35.1062298,0.40639292 34.2927165,0.734546313 33.5939761,1.15403304 C32.8936192,1.57554041 32.2971236,2.08918938 31.781454,2.62062006 L31.781454,2.62062006 C31.0091619,3.4187764 30.451867,4.36848142 30.0865336,5.37193569 C29.7212003,6.37660236 29.5445956,7.43865546 29.5445956,8.49747552 C29.5445956,9.35463481 29.660985,10.2109858 29.8998257,11.0346024 C29.9006339,11.0374313 29.9018463,11.0406643 29.9018463,11.0406643 C27.020805,12.5549386 23.9094097,13.6311363 20.70951,14.1888354 C19.8022386,14.3468501 19.1952357,15.2104755 19.3532504,16.1177469 C19.5112652,17.0250183 20.3748906,17.6320212 21.2821619,17.4740065 L21.2821619,17.4740065 C24.8461826,16.8524549 28.2986634,15.6610802 31.4933094,13.9803044 C31.6113153,14.1132631 31.7341708,14.2429888 31.8638965,14.3678649 C32.3464274,14.8314018 32.9105926,15.230682 33.5450764,15.5341835 C34.179156,15.8380891 34.8819378,16.0445994 35.6307903,16.1371451 C36.0126929,16.1844283 36.3800469,16.2094844 36.7377018,16.2094844 C37.3119702,16.2098885 37.8636074,16.1432071 38.3853389,15.996508 C39.170159,15.7794903 39.8616251,15.3713192 40.4201324,14.8831304 C40.7232298,14.6200419 40.9923802,14.3363428 41.2465779,14.0384991 C41.3330617,14.324623 41.4142917,14.6309534 41.4829938,14.9247558 C41.5436133,15.1817823 41.5969584,15.4283015 41.6442416,15.647744 C41.692333,15.8696112 41.7311295,16.0555109 41.776392,16.2361569 L41.776392,16.2349445 C42.1861796,17.8510596 42.5353478,19.499505 42.878454,21.1649239 C34.5780322,21.644626 26.8939083,24.0164637 20.4153035,27.7776997 C13.1300558,32.0061097 7.37484336,37.9775316 3.94620619,44.9443251 C1.66004395,49.5906053 0.401583776,54.6781953 0.400775516,60.026449 C0.401987906,66.552741 2.2751295,72.6947056 5.60677552,78.1132779 C7.05921799,80.4762248 8.7521177,82.6985345 10.6786044,84.6953398 C12.4919348,86.5741392 14.7732475,88.2023782 16.303687,90.3070861 C17.6154923,92.1107174 18.561156,93.7607794 18.82869,96.026331 C19.0784422,98.137505 18.7745366,100.325868 18.3348434,102.340859 C17.6356988,105.545204 16.9361501,108.749549 16.2370056,111.95349 C15.6930469,114.446163 15.1490882,116.938431 14.6051295,119.431104 C14.1310853,121.602897 14.1314894,123.608998 14.6326103,125.779175 C15.534628,129.684685 19.3096044,129.312077 22.4666664,129.312077 L33.3466487,129.312077 L46.8247814,129.312077 L60.1380292,129.312077 L70.524569,129.312077 C71.8359702,129.312077 73.9814953,129.311673 75.1065926,128.576965 C76.2405808,127.836195 76.9336634,126.627443 77.3260735,125.349585 C77.9039791,123.465936 77.791631,121.274744 77.3980086,119.454139 C76.8322268,116.837803 76.2664451,114.221467 75.7006634,111.60513 C75.1740823,109.171057 74.6479053,106.736579 74.1213242,104.302505 C73.6254569,102.009877 72.8499319,99.6198531 73.0410853,97.2488236 C73.1590912,95.7842572 73.5474599,94.3528295 74.1617372,93.0192012 C75.2007549,90.7633487 76.9668021,88.7055198 78.8104422,87.0728354 C80.9975926,85.1358413 82.988336,82.9745552 84.7115454,80.6148413 C85.3092534,79.7972867 85.8742268,78.9558885 86.404041,78.0930714 C89.7276044,72.6789445 91.5963006,66.5446584 91.597513,60.026449 C91.5967047,54.6781953 90.3382445,49.5906053 88.0516782,44.9443251 L88.0516782,44.9443251 Z" id="Fill-13" fill="#00C0C8" mask="url(#mask-2)"></path>
                </g>
                <polygon id="Fill-16" fill="#00C0C8" points="44.9079534 7.67620295 44.9079534 7.67620295 44.9084534 7.67620295"></polygon>
                <path d="M47.5684206,116.363435 L47.5684206,116.363031 L47.5684206,116.363435 Z M50.044928,111.706244 C50.3253941,111.298073 50.6624383,110.943651 51.0390873,110.666822 C51.4165445,110.389589 51.8315858,110.18914 52.2829988,110.079621 C52.4887009,110.029509 52.7024855,110.001624 52.8964678,110.002028 C53.1199516,110.001624 53.3143381,110.038804 53.4582083,110.100636 C53.6032909,110.164488 53.7023027,110.239657 53.7972732,110.371807 C53.8817363,110.4983 53.9051758,110.586804 53.9084088,110.726633 C53.9096212,110.859996 53.8708248,111.043067 53.7770667,111.254831 C53.6392584,111.572881 53.3814236,111.940639 53.0876212,112.263943 C52.7950313,112.588459 52.4664737,112.873371 52.2195504,113.051592 C51.2989428,113.717598 50.2623499,114.220335 49.1639251,114.591326 C49.1635209,114.569907 49.1590755,114.549701 49.1590755,114.528282 C49.1570549,113.551904 49.4819752,112.521373 50.044928,111.706244 L50.044928,111.706244 Z M57.9173764,114.139509 L57.9173764,114.139105 C58.0899398,113.805698 58.3792968,113.460571 58.7304855,113.171214 C59.0804619,112.880241 59.4902496,112.645845 59.8729605,112.508441 C60.1105888,112.421553 60.3466006,112.373462 60.5341168,112.37427 C60.646869,112.37427 60.7418395,112.389627 60.8263027,112.417512 C60.9515829,112.459946 61.0384708,112.505612 61.0970696,112.545621 C61.1847658,112.607857 61.213459,112.649078 61.2397274,112.699999 C61.2647835,112.751323 61.2862024,112.826491 61.2866065,112.951368 C61.2870106,113.094834 61.2526596,113.300132 61.169813,113.538972 C61.1233381,113.67476 61.0429162,113.823884 60.9297599,113.980686 C60.8170077,114.137488 60.6727333,114.299949 60.5135062,114.461196 C59.7525298,115.236317 58.7191699,115.903132 57.6559044,116.466084 C57.5714413,116.245429 57.5241581,115.988403 57.5241581,115.701875 C57.5213292,115.178931 57.682577,114.585264 57.9173764,114.139509 L57.9173764,114.139509 Z M62.6659015,108.498261 C62.7164177,108.551202 63.2171345,109.095969 63.7190637,110.046483 C64.2218012,110.998208 64.7265593,112.348406 64.8138513,114.041306 C64.8401198,114.557783 65.2806212,114.955043 65.7975032,114.928371 C66.3139811,114.901698 66.7108366,114.461601 66.6845681,113.944719 C66.5754531,111.830716 65.9183381,110.154789 65.2866832,109.007465 C64.6853381,107.91591 64.1126861,107.301633 64.0197363,107.204238 C62.5462791,105.399394 60.8509546,104.386645 59.5209634,103.832583 C58.1946094,103.280137 57.2299516,103.171427 57.1394265,103.161727 C56.879167,103.118081 56.6168867,103.080093 56.3533941,103.052208 C55.9161257,103.005733 55.4764324,102.98189 55.0363351,102.98189 C53.9589251,102.98189 52.8790903,103.123739 51.83199,103.421987 C51.779049,103.437344 51.7269162,103.452297 51.6751876,103.468058 C49.9503617,103.987769 48.410223,104.921713 47.1032673,106.090052 C46.4760578,106.650984 45.8714796,107.28466 45.3719752,108.029471 C44.897931,108.73791 44.449751,109.525155 44.1373587,110.380698 C43.6035032,111.84284 43.3432437,113.372067 43.3436478,114.917055 C43.3436478,114.989394 43.3440519,115.062946 43.3452643,115.136497 L43.3452643,115.135285 C43.3553676,115.543456 43.3250578,116.069633 43.4628661,116.67017 C43.565515,117.107842 43.9680283,117.411344 44.4170165,117.390733 C44.4594501,117.388713 44.4861227,117.386288 44.521282,117.383459 C44.7520401,117.362444 45.2535652,117.305058 45.4576507,117.279598 C45.8157097,117.233931 46.1810431,117.18584 46.5504177,117.128453 C46.9614177,117.065005 47.3724177,116.987816 47.7838218,116.901332 C47.9527481,117.263837 48.1604708,117.59684 48.4049693,117.890238 C48.9469074,118.541291 49.6440313,119.00604 50.3949044,119.304288 C51.14699,119.60294 51.9560578,119.740748 52.763105,119.741152 C52.8774737,119.741152 52.9918425,119.738323 53.1062112,119.732665 C54.5319811,119.663155 55.9242083,119.312775 57.2145947,118.760733 C57.3491699,118.853683 57.4869782,118.939359 57.6259988,119.016547 C58.1626832,119.311966 58.7244236,119.501099 59.2453469,119.619913 C59.7480844,119.733474 60.254459,119.784394 60.7535593,119.784394 C61.4482584,119.78399 62.1308336,119.686999 62.7843115,119.52373 C63.1140814,119.441692 63.4394059,119.339851 63.7610932,119.226291 C63.5404383,119.616276 63.293515,120.004645 63.0005209,120.401096 C61.7731788,122.063282 60.073813,123.382362 58.1501552,124.015229 C57.4873823,124.233863 56.7906625,124.3745 56.0826271,124.445627 C55.7342673,124.480382 55.3842909,124.498164 55.0335062,124.498164 C54.195341,124.498164 53.3555593,124.397536 52.548108,124.197491 C51.4314973,123.919046 50.5347333,123.499559 49.5955357,122.841232 C48.6765445,122.195028 47.8606065,121.4975 47.2503705,120.6363 L47.2172319,120.59225 C46.8349251,120.115376 46.5411227,119.696294 46.1450755,119.037158 C45.8791581,118.593424 45.3036773,118.449553 44.8599428,118.715471 C44.4166124,118.981792 44.2727422,119.556869 44.5386596,120.000199 C44.9642083,120.711468 45.3271168,121.230775 45.7558985,121.76463 L45.757515,121.763418 C46.5431434,122.854972 47.5263912,123.674952 48.5177215,124.372884 C49.6153381,125.147601 50.7691286,125.688326 52.0975032,126.015671 C53.0573115,126.2533 54.0462171,126.370901 55.0335062,126.370901 C55.4465268,126.370901 55.8591434,126.350291 56.2693351,126.30907 C57.0998218,126.225819 57.9303086,126.060126 58.7369516,125.793804 C61.0809044,125.019087 63.0728602,123.453488 64.5067127,121.514474 C64.94681,120.918786 65.3537687,120.29966 65.6831345,119.62153 C66.0125003,118.943804 66.2622525,118.205459 66.3814708,117.394371 C66.4348159,117.033887 66.2755888,116.67704 65.9712791,116.476188 C65.6677776,116.275335 65.2769841,116.268465 64.9662083,116.45881 C64.6970578,116.623695 64.4719575,116.786155 64.2702968,116.919922 C64.068636,117.054497 63.8920313,117.160379 63.7178513,117.236356 C63.2729044,117.43155 62.8097717,117.58714 62.3316861,117.706359 C61.8047009,117.838105 61.2720578,117.911253 60.7535593,117.911253 C60.3805475,117.911253 60.0144059,117.873668 59.6591758,117.793247 C59.5403617,117.766574 59.4175062,117.724545 59.295459,117.686556 C60.1999015,117.157146 61.0897953,116.541657 61.8471345,115.776235 C62.0475829,115.572553 62.256518,115.342604 62.4492879,115.075474 C62.6416537,114.808748 62.8186625,114.502822 62.9411139,114.148804 L62.941518,114.147592 C63.0728602,113.76286 63.1585357,113.365601 63.159344,112.951368 C63.159344,112.714952 63.1306507,112.473282 63.0603322,112.234037 C62.9572791,111.875574 62.7531935,111.526406 62.4654531,111.252002 C62.1781168,110.975577 61.8200578,110.775129 61.4211817,110.641766 C61.1209133,110.541137 60.8194324,110.501129 60.5341168,110.501129 C60.0548189,110.501937 59.6195711,110.608627 59.2352437,110.747244 C58.6302614,110.966686 58.0511434,111.302922 57.536282,111.728067 C57.022633,112.154019 56.5720283,112.669689 56.2564029,113.273863 C55.8886448,113.983919 55.6534413,114.824913 55.6510165,115.701875 C55.6510165,116.213099 55.7354796,116.743722 55.9480519,117.246055 C54.9995593,117.594819 54.0070165,117.813857 53.0148779,117.861949 C52.931223,117.86599 52.847164,117.868011 52.763105,117.868011 C51.9730313,117.869223 51.2055888,117.682515 50.6107097,117.332943 C50.3124619,117.158359 50.0554354,116.944978 49.8440755,116.691589 C49.7701198,116.602276 49.708692,116.50084 49.6460519,116.401019 C50.9396714,115.975471 52.1892407,115.385441 53.3179752,114.568695 C53.7984855,114.218719 54.366692,113.703857 54.8556891,113.065332 C55.0989752,112.745261 55.3220549,112.394477 55.4921935,112.00732 C55.6615239,111.620568 55.7807422,111.192191 55.7815504,110.726633 C55.7847835,110.249356 55.6409133,109.73409 55.331754,109.298034 L55.3313499,109.297226 C55.0314855,108.865615 54.618869,108.556456 54.1900873,108.376618 C53.7596891,108.194356 53.317167,108.129291 52.8964678,108.128887 C52.5287097,108.129291 52.174692,108.178999 51.8420932,108.259421 C51.1340578,108.430368 50.4898749,108.745589 49.929751,109.157801 C49.0887569,109.776928 48.4340667,110.609031 47.9838661,111.536913 C47.5340696,112.465199 47.2867422,113.493306 47.2859339,114.528282 C47.2859339,114.71499 47.2972496,114.901698 47.314223,115.088406 C46.9670755,115.159533 46.6170991,115.222981 46.2630814,115.277539 C45.9224,115.33048 45.5748484,115.37655 45.2208307,115.421409 L45.2204265,115.421409 C45.2196183,115.320376 45.2192142,115.215303 45.2180018,115.105379 L45.2180018,115.103763 C45.2167894,115.042335 45.2163853,114.979695 45.2163853,114.917055 C45.2167894,113.581406 45.4402732,112.27445 45.8969398,111.02286 C46.1357805,110.365341 46.5087923,109.69691 46.9282791,109.071722 C47.3093735,108.502303 47.8020077,107.977338 48.3516242,107.486724 C49.4844,106.473975 50.7917599,105.689963 52.2147009,105.261586 C52.2579428,105.248654 52.3019929,105.235722 52.3456389,105.223194 C53.2161345,104.975462 54.1234059,104.855031 55.0363351,104.855031 C55.4089428,104.855031 55.7827628,104.874834 56.1553705,104.914438 C56.3970401,104.940303 56.6387097,104.97425 56.879167,105.015471 L56.9389782,105.023553 L56.9389782,105.023553 L56.9462525,105.024362 C57.031928,105.034465 57.8628189,105.147621 58.9580106,105.62894 C60.0548189,106.110663 61.4118867,106.952061 62.6048779,108.429963 C62.6287215,108.459061 62.6372083,108.46876 62.6618602,108.49422 L62.6618602,108.49422 L62.6659015,108.498261 Z" id="Fill-18" fill="#FFFFFF"></path>
                <path id="Fill-20" fill="#FFFFFF"></path>
                <path d="M99.2994186,30.8570071 C99.3285159,30.825485 99.362867,30.7980041 99.4020676,30.7753729 C100.012708,30.4213552 101.287737,30.947128 101.954551,31.1730366 C102.783826,31.4543109 103.518938,31.7800395 104.401557,31.8839009 C104.70223,31.9194643 105.499578,32.1267829 105.325398,32.4880749 C105.228407,32.6893316 105.05746,32.8251192 104.820236,32.914836 C103.983687,33.2316737 103.03479,32.8469422 102.172377,32.5644555 C101.889082,32.4715056 101.554463,32.4238183 101.334616,32.5543522 C100.355006,33.1362991 102.96043,33.8221074 103.385575,33.9292018 C103.534295,33.9667858 103.689481,34.0031575 103.815569,34.0835794 C104.039053,34.2270454 104.01238,34.4646737 103.933575,34.6348124 C103.828097,34.8619333 103.586832,35.0336885 103.291009,35.0918832 C102.696129,35.209485 102.066495,34.7988891 101.465554,34.708364 C101.30269,34.6837121 101.125681,34.6808832 101.00525,34.7556472 C100.922,34.8073758 100.876737,34.8906265 100.85451,34.9771103 C100.673864,35.6871664 101.804619,36.0137032 102.416472,36.3127593 C102.52397,36.3657003 102.64036,36.4242991 102.691684,36.5156324 C102.793121,36.6946619 102.584994,36.8518684 102.383333,36.9225912 C101.817147,37.1222313 101.122448,37.1254643 100.485135,36.9306737 C99.8482268,36.7358832 99.2763832,36.3463021 98.9235779,35.8657917 C98.6132062,35.443072 98.7405071,34.7604968 98.7982976,34.337777 C98.9086251,33.5262844 99.0326929,32.7333817 99.1074569,31.9138065 C99.1353419,31.6099009 99.0630027,31.1099923 99.2994186,30.8570071" id="Fill-22" fill="#00C0C8"></path>
                <path d="M116.891754,16.364549 C116.660592,15.3522038 116.184123,14.3548115 115.497911,13.4289501 C114.125082,11.5768233 111.91045,10.0156699 109.179745,9.21347227 C107.13202,8.61172301 105.09763,8.5248351 103.298445,8.86349587 C101.49845,9.20175251 99.9377012,9.96515369 98.8251319,11.0542835 C97.3937041,12.4554015 96.7660906,14.415431 96.9220847,16.3706109 C96.9996776,17.3449678 97.2672115,18.3205372 97.7174121,19.2334664 C98.1575094,20.1269973 98.8158369,20.9360652 99.0518487,21.8934487 C99.314533,22.9583307 99.3678782,24.0474605 99.2539136,25.1078971 C99.2102676,25.5132392 99.1488398,25.9189855 99.1856156,26.3295814 C99.3816186,28.5211773 101.969262,29.5278646 104.03194,29.9667496 C104.682993,30.1053661 105.359506,30.2431743 106.018642,30.1950829 C107.292459,30.102133 107.922902,29.3144841 108.350875,28.3324487 C109.181766,26.4245519 110.207043,25.0319206 112.188088,23.9747171 C112.885212,23.6025136 113.56617,23.2557702 114.180043,22.8475991 C115.461943,21.99731 116.408819,20.7950239 116.817394,19.4027968 C117.110388,18.404192 117.122917,17.3772982 116.891754,16.364549" id="Fill-24" fill="#00C0C8"></path>
                <path id="Fill-26" fill="#00C0C8"></path>
                <path d="M112.411935,19.1483566 C112.247858,19.4862091 112.028416,19.7731413 111.777855,20.0208729 C111.527295,20.2686044 111.247637,20.4779437 110.95626,20.6715218 C110.002109,21.303985 108.820029,21.6947785 107.561569,21.6907372 C107.128342,21.6891206 106.697136,21.6406251 106.277245,21.5565661 C106.069522,21.5149407 105.863416,21.4640204 105.65933,21.403805 C105.172354,21.2607431 104.699522,21.0663566 104.256192,20.8238788 C103.64151,20.4892593 103.137965,20.0847254 102.695847,19.5896664 L102.695847,19.5896664 C102.494994,19.3657785 102.523687,19.0505572 102.759699,18.8856723 C102.995711,18.7207873 103.349729,18.7684746 103.550581,18.9923625 C103.918339,19.4009378 104.291351,19.6999938 104.790047,19.9735897 C105.150935,20.170805 105.539708,20.3308404 105.940201,20.4488463 C106.107914,20.4981501 106.277245,20.5397755 106.447788,20.5741265 C106.795339,20.6436369 107.145316,20.6824333 107.487614,20.6836457 C108.480965,20.6880912 109.456534,20.373274 110.249032,19.8470971 C110.371484,19.765867 110.485853,19.6846369 110.592947,19.6017903 C110.498785,19.5993655 110.404622,19.5953242 110.310864,19.5888581 C109.965737,19.5646103 109.614549,19.507628 109.268614,19.4057873 C109.01967,19.333044 108.773555,19.2364569 108.537139,19.1123891 C108.35326,19.0162062 108.163723,18.8990086 107.982268,18.7579673 C107.871537,18.6714835 107.764442,18.5753006 107.664218,18.4694186 C106.972752,18.5158935 106.258251,18.4649732 105.560723,18.2920056 C105.502932,18.2778611 105.445546,18.2621 105.388563,18.2455307 C104.98605,18.1271206 104.599702,17.9480912 104.261041,17.7052091 C103.922785,17.4631354 103.631407,17.1539761 103.442274,16.7837932 C103.367106,16.63669 103.311336,16.4798876 103.27254,16.3178316 C103.083407,16.2968168 102.895487,16.2721649 102.709587,16.2438758 C102.521263,16.2151826 102.336979,16.1832563 102.156333,16.1517342 C102.104201,16.1424392 102.016504,16.126274 101.925575,16.1088965 C101.834242,16.0915189 101.744929,16.0741413 101.684714,16.0616133 C101.666528,16.057572 101.652788,16.0547431 101.629348,16.0490853 C101.325847,15.9727047 101.131864,15.6942593 101.195717,15.4267254 C101.259165,15.1604038 101.55418,15.0060263 101.856065,15.0795779 L101.856065,15.0791737 L101.857277,15.0795779 L101.868997,15.0820027 C101.879504,15.0844274 101.895265,15.0872563 101.913451,15.0908935 C101.950227,15.098572 101.99751,15.1074628 102.04641,15.1171619 C102.144209,15.1357519 102.251304,15.1555543 102.297779,15.1636369 C102.475192,15.195159 102.649372,15.2250646 102.820319,15.2509289 C102.970655,15.2735602 103.120991,15.2933625 103.270115,15.3107401 C103.283451,15.2505248 103.297596,15.1903094 103.314973,15.1313065 C103.449145,14.6766605 103.704959,14.2624274 104.048873,13.9213419 C104.392788,13.5806605 104.827227,13.3111059 105.329156,13.1615779 C105.663776,13.0625661 106.028705,13.0185159 106.407375,13.0476133 C106.585596,13.0609496 106.771091,13.0916634 106.957799,13.1462209 C107.171584,13.2092652 107.389814,13.305044 107.588242,13.4533596 C107.786265,13.6000587 107.959637,13.8053566 108.057437,14.0478345 L108.057437,14.0482386 C108.107549,14.1710941 108.135838,14.298395 108.1419,14.4212504 C108.147962,14.54451 108.131796,14.6629201 108.099466,14.7720351 C108.036422,14.9846074 107.918012,15.1599997 107.781416,15.3071029 C107.644012,15.4546103 107.486401,15.5762534 107.323537,15.680923 C106.996596,15.889454 106.650257,16.0308994 106.363729,16.1141501 C105.740156,16.2939879 105.09072,16.3736015 104.439667,16.3796634 C104.445729,16.3921914 104.450578,16.4055277 104.457044,16.4176516 C104.522917,16.5469732 104.614655,16.6665956 104.731448,16.7773271 C104.963015,16.9991944 105.298442,17.1818611 105.669434,17.2901678 C105.708634,17.3018876 105.748239,17.3127991 105.788248,17.3224982 C106.237236,17.4340381 106.706431,17.4829378 107.173201,17.4776841 C107.167139,17.4202976 107.163097,17.3633153 107.163097,17.3071413 C107.163906,17.1402357 107.190578,16.9802003 107.235032,16.8286516 C107.351018,16.4394746 107.577735,16.104451 107.854563,15.8445956 C108.094212,15.6223242 108.388015,15.4610764 108.700407,15.3491324 C109.013608,15.2375926 109.346611,15.1749525 109.680018,15.167274 C109.891782,15.1628286 110.126985,15.1798021 110.373504,15.2517372 C110.520608,15.2949791 110.671348,15.3592357 110.814006,15.4509732 C111.00031,15.5709997 111.159941,15.7164864 111.273097,15.8882416 C111.386658,16.0591885 111.446873,16.2531708 111.452127,16.4342209 C111.456572,16.5550558 111.439195,16.6702327 111.407673,16.7777313 C111.351903,16.9660558 111.255316,17.1305366 111.138926,17.281277 L111.138926,17.2816811 C111.028599,17.4239348 110.897661,17.5342622 110.76551,17.6243832 C110.632956,17.7145041 110.498785,17.7848227 110.3731,17.8442298 C110.007363,18.0176015 109.614953,18.1408611 109.220118,18.2338109 C109.172431,18.2451265 109.125147,18.2544215 109.07746,18.2645248 C109.22618,18.3400971 109.383791,18.4019289 109.54908,18.4508286 C109.793174,18.5223596 110.053838,18.5660056 110.320563,18.5849997 C110.563041,18.6019732 110.80269,18.601569 111.038298,18.5821708 L111.038702,18.5821708 C111.124782,18.5753006 111.21854,18.5563065 111.331292,18.5284215 C111.444044,18.5005366 111.575386,18.4629525 111.730976,18.4298139 C111.939912,18.3857637 112.165416,18.4560823 112.311711,18.6100558 C112.457602,18.7644333 112.496802,18.9737726 112.411935,19.1483566" id="Fill-28" fill="#FFFFFF"></path>
                <path d="M109.166005,4.89688112 C109.34261,3.49212596 109.520023,2.08696667 109.696627,0.681807375 C109.738657,0.350016814 109.503049,0.046919469 109.171259,0.0048899705 C108.839064,-0.0367353982 108.535967,0.198468142 108.494341,0.530662832 C108.317332,1.93541799 108.139919,3.34017316 107.963315,4.74533245 C107.921285,5.07752714 108.156489,5.38062448 108.489088,5.42265398 C108.820878,5.46468348 109.123976,5.22907581 109.166005,4.89688112 Z" id="Fill-30" fill="#00C0C8"></path>
                <g id="Group-34" transform="translate(119.622419, 12.223714)">
                    <mask id="mask-4" fill="white">
                        <use xlink:href="#path-3"></use>
                    </mask>
                    <g id="Clip-33"></g>
                    <path d="M1.01432537,3.32934248 C2.88544631,2.70819499 4.75697139,2.08704749 6.62849646,1.4659 C6.94614248,1.36042212 7.11830177,1.01731593 7.01282389,0.699669912 C6.90734602,0.382023894 6.56423982,0.209864602 6.24659381,0.315342478 C4.37506873,0.936085841 2.50354366,1.55723333 0.632422714,2.17878496 C0.314776696,2.28426283 0.142617404,2.62736903 0.24809528,2.94501504 C0.353573156,3.26266106 0.696679351,3.43482035 1.01432537,3.32934248 Z" id="Fill-32" fill="#00C0C8" mask="url(#mask-4)"></path>
                </g>
                <path d="M117.094304,8.45855782 L119.824605,4.19013894 C120.004847,3.90846047 119.922404,3.53342802 119.640726,3.35318614 C119.358643,3.17294425 118.984015,3.25538673 118.803369,3.53706519 C117.893269,4.96000619 116.983168,6.38254307 116.073068,7.80548407 C115.892422,8.08716254 115.974865,8.46219499 116.256947,8.642841 C116.53903,8.82308289 116.914062,8.74064041 117.094304,8.45855782 Z" id="Fill-35" fill="#00C0C8"></path>
                <path d="M106.458335,14.9474678 C106.636153,14.854518 106.801037,14.7381286 106.899241,14.6310342 C106.965518,14.5599074 107.000678,14.4960549 107.012801,14.452813 C107.019672,14.4297776 107.021288,14.4119959 107.02048,14.3946183 C107.019672,14.3772407 107.016439,14.359459 107.006335,14.3339988 L107.006335,14.3344029 C106.982492,14.2794413 106.955819,14.2471109 106.905303,14.2079103 C106.854787,14.1699221 106.77679,14.1307215 106.67697,14.1016242 C106.59089,14.076164 106.490262,14.0583823 106.390037,14.051108 C106.169787,14.0341345 105.95479,14.0591906 105.746663,14.1206183 C105.53894,14.182046 105.3393,14.2810578 105.158654,14.4103794 C104.820397,14.6508366 104.557309,14.9996006 104.428796,15.3714 C104.956993,15.3604885 105.47145,15.2925947 105.953981,15.1531699 C106.090173,15.1143735 106.281327,15.041226 106.458335,14.9474678" id="Fill-37" fill="#00C0C8"></path>
                <path d="M110.048018,16.806869 C110.117933,16.7595858 110.169257,16.7123027 110.202396,16.6690608 C110.268673,16.5837894 110.306661,16.5082171 110.320806,16.458105 C110.333738,16.4140549 110.331313,16.3918277 110.328888,16.3805121 C110.325251,16.3691965 110.324847,16.361518 110.299387,16.3328248 C110.282414,16.3142348 110.252508,16.2871581 110.202396,16.2552319 C110.174511,16.237046 110.139756,16.2208808 110.092877,16.2071404 C110.015284,16.1837009 109.904552,16.1711729 109.785738,16.1740018 C109.594181,16.1780431 109.374334,16.2176478 109.177119,16.2887746 C108.979095,16.3586891 108.804511,16.4601257 108.68893,16.5688366 C108.528086,16.7167481 108.381387,16.9386153 108.321576,17.1479546 C108.298945,17.2255475 108.287629,17.3011198 108.286417,17.3706301 C108.482419,17.339108 108.67721,17.3027363 108.865939,17.258282 C109.203791,17.1790726 109.522245,17.0764236 109.79665,16.9462938 C109.892024,16.9014354 109.978508,16.8541522 110.048018,16.806869" id="Fill-39" fill="#00C0C8"></path>
            </g>
        </g>
    </g>
</svg>